<svg xmlns="http://www.w3.org/2000/svg" width="70" height="70" fill="none"><path fill="#AE9273" d="m13.89 19.25 8.822 46.935a3.471 3.471 0 0 0 3.407 2.83h19.385a3.488 3.488 0 0 0 3.387-2.734l10.23-47.029a4.206 4.206 0 0 0-1.145-7.843l-.12-8.27a1.41 1.41 0 0 0-1.545-1.383L17.468 6.483a1.411 1.411 0 0 0-1.24 1.4v3.447h-.379a4.204 4.204 0 0 0-1.96 7.92Zm3.899 11.865H54.86l-4.615 21.219H21.777l-3.988-21.22Zm29.499 34.818a1.838 1.838 0 0 1-1.784 1.442H26.119a1.83 1.83 0 0 1-1.795-1.493l-2.238-11.908h27.803l-2.601 11.959Zm10.049-46.195-2.118 9.736H17.48l-1.83-9.736h41.686ZM17.869 8.087 56.22 3.42l.115 7.91H17.869V8.087Zm-2.02 4.883h41.317a2.563 2.563 0 1 1 0 5.127H15.85a2.564 2.564 0 0 1 0-5.127Z"/><path fill="#AE9273" d="M42.374 36.095c-1.134-1.16-2.828-1.607-4.77-1.259-1.825.328-3.674 1.332-5.207 2.828-1.912 1.867-3.069 4.275-3.093 6.443-.016 1.4.431 2.606 1.294 3.488.883.903 2.105 1.374 3.52 1.374a7.09 7.09 0 0 0 1.25-.116c1.825-.328 3.674-1.331 5.207-2.828 1.912-1.866 3.068-4.275 3.093-6.442.016-1.4-.431-2.606-1.294-3.488Zm-8.83 2.743c1.63-1.593 3.65-2.466 5.311-2.466a3.476 3.476 0 0 1 1.872.487l-.636 1.088a6.627 6.627 0 0 1-3.645 2.953l-.71.235a7.047 7.047 0 0 0-3.843 3.089l-.735 1.236a3.74 3.74 0 0 1-.213-1.334c.02-1.742.99-3.719 2.598-5.288Zm5.885 6.014c-2.325 2.268-5.434 3.078-7.178 1.98l1.053-1.77a5.407 5.407 0 0 1 2.948-2.369l.71-.235a8.268 8.268 0 0 0 4.546-3.683l.311-.533c.149.425.22.873.209 1.323-.02 1.74-.992 3.717-2.6 5.287Z"/></svg>