<svg width="50" height="50" viewBox="0 0 50 50" fill="none" xmlns="http://www.w3.org/2000/svg">
<path d="M15.6531 14.51C15.6408 14.5348 15.6302 14.5605 15.6217 14.5869C15.3734 15.2037 15.1965 15.8469 15.0943 16.5039C13.8908 16.6559 12.5338 17.3114 11.437 18.291C10.1717 19.4208 9.41111 20.7967 9.25359 22.2149H7.11707C7.01078 22.2151 6.90559 22.2363 6.80756 22.2774C6.70953 22.3185 6.62059 22.3785 6.54588 22.4541C6.47193 22.5288 6.41372 22.6175 6.37469 22.7151C6.33565 22.8126 6.31659 22.917 6.31863 23.0221C6.38865 27.1041 8.3781 30.9246 11.9206 33.781C14.7917 36.096 18.4207 37.5603 22.3389 38.0176V43.5832C20.4844 43.7102 18.8074 43.9706 17.5714 44.3274C15.8917 44.8121 15.076 45.4439 15.076 46.259C15.076 48.4413 21.314 49.0236 25 49.0236C27.5378 49.0236 29.9301 48.7915 31.7361 48.3701C33.8812 47.8695 34.924 47.1787 34.924 46.2588C34.924 45.4437 34.1077 44.8119 32.4285 44.3272C31.1925 43.9704 29.5155 43.7099 27.6611 43.583V38.0178C31.5794 37.5603 35.2081 36.0962 38.0793 33.7812C41.6218 30.9248 43.6114 27.1039 43.6813 23.0224C43.6834 22.9173 43.6643 22.8129 43.6253 22.7153C43.5862 22.6177 43.528 22.529 43.454 22.4543C43.3793 22.3787 43.2904 22.3187 43.1923 22.2776C43.0943 22.2366 42.9892 22.2153 42.8829 22.2151H41.549C41.4088 20.7339 40.7572 19.3478 39.7061 18.2948C39.1179 17.6915 38.4149 17.2119 37.6385 16.8843C36.8622 16.5566 36.0282 16.3875 35.1855 16.3869C34.5236 16.3863 33.8656 16.4874 33.2344 16.6865C33.1608 16.7098 33.0841 16.739 33.0051 16.7714C32.7557 14.731 31.7984 12.8428 30.3 11.4357C29.2698 10.4539 28.0218 9.7301 26.6581 9.32345C27.2225 8.73012 27.5383 7.94316 27.5406 7.12423C27.5342 6.26531 27.1874 5.444 26.5762 4.84047C25.965 4.23694 25.1394 3.90048 24.2804 3.9049C24.2135 3.9049 24.1472 3.90754 24.0813 3.91144C24.076 3.86984 24.0724 3.83088 24.0704 3.79611C24.0585 3.45793 24.1229 3.12142 24.2587 2.81147C24.3944 2.50152 24.5982 2.22606 24.8548 2.00548C24.9722 1.90372 25.0445 1.75947 25.0556 1.60445C25.0667 1.44943 25.0158 1.29634 24.914 1.17887C24.8122 1.0614 24.668 0.98917 24.5129 0.978062C24.3579 0.966955 24.2048 1.01788 24.0874 1.11964C23.6963 1.45894 23.3866 1.88185 23.1811 2.35707C22.9756 2.83229 22.8797 3.34764 22.9004 3.86496C22.9069 3.97444 22.9196 4.08347 22.9384 4.19152C22.3696 4.44306 21.8859 4.85383 21.5455 5.37425C21.2051 5.89466 21.0226 6.50248 21.02 7.12433C21.0197 7.8943 21.2982 8.63835 21.8039 9.21896C20.2054 9.61955 18.7465 10.4485 17.5841 11.6165C16.757 12.4452 16.1009 13.4283 15.6531 14.51ZM31.8945 17.6597C31.8945 17.667 31.8945 17.6743 31.8951 17.6817C31.8964 17.7402 31.8995 17.7983 31.8995 17.8569C31.8913 19.4118 31.4196 20.9291 30.5448 22.2147H17.5796L17.3399 21.9246C17.3202 21.9009 17.3022 21.8759 17.286 21.8496C16.4992 20.5682 16.109 19.0827 16.1644 17.5801C16.1858 16.9734 16.2809 16.3716 16.4476 15.7879C16.993 16.2654 17.6964 16.5232 18.4212 16.5111C19.6177 16.5111 20.248 15.9349 20.7552 15.4712C21.2202 15.0458 21.5559 14.7388 22.2981 14.7388C23.0403 14.7388 23.3757 15.0461 23.8411 15.4712C24.3476 15.9345 24.978 16.5111 26.1751 16.5111C27.3721 16.5111 28.0024 15.9349 28.5091 15.4712C28.9742 15.0458 29.3104 14.7388 30.052 14.7388C30.7335 14.7388 31.0872 15.0111 31.4866 15.3721C31.7386 16.1093 31.8762 16.8808 31.8945 17.6597ZM12.2177 19.165C13.0546 18.4177 14.0846 17.8845 14.9912 17.7068C14.9627 19.2855 15.3602 20.8427 16.1419 22.2147H10.4337C10.6404 20.7768 11.6113 19.7062 12.2174 19.165H12.2177ZM31.9052 45.3978C33.2529 45.7604 33.6865 46.1352 33.7484 46.259C33.6742 46.4119 33.0965 46.8766 31.2448 47.2797C29.5501 47.6486 27.3324 47.8518 25 47.8518C22.6676 47.8518 20.4499 47.6486 18.7554 47.2797C16.9038 46.8766 16.3261 46.4119 16.2519 46.259C16.3137 46.1352 16.7471 45.7604 18.0951 45.3978C19.2132 45.0969 20.7025 44.8733 22.3389 44.7574V45.0805C22.3389 45.2034 22.3776 45.3233 22.4494 45.423C22.5213 45.5228 22.6227 45.5974 22.7393 45.6363C24.2071 46.1223 25.7924 46.1223 27.2602 45.6363C27.3768 45.5974 27.4783 45.5228 27.5501 45.423C27.622 45.3233 27.6606 45.2034 27.6606 45.0805V44.7574C29.2973 44.8733 30.7868 45.0969 31.9049 45.3978H31.9052ZM26.4896 44.6424C25.5124 44.8915 24.4883 44.8915 23.5111 44.6424V38.1233C24.0041 38.155 24.5005 38.1712 25.0003 38.1721C25.5001 38.1729 25.9965 38.1567 26.4895 38.1233L26.4896 44.6424ZM37.3437 32.8685C34.0393 35.5327 29.6556 37.0001 25 37.0001C20.3443 37.0001 15.9605 35.5327 12.6562 32.8685C9.50193 30.3248 7.68259 26.97 7.5033 23.3861H30.7565C30.8127 23.395 30.87 23.395 30.9262 23.3861H40.9242C40.9687 23.3915 41.0136 23.3915 41.0581 23.3861H42.4967C42.3175 26.9704 40.498 30.3248 37.3437 32.8685ZM33.3407 17.9024C33.4209 17.8644 33.5033 17.8315 33.5876 17.8039C34.1045 17.6409 34.6435 17.5582 35.1855 17.5588C37.8168 17.5588 40.0671 19.6367 40.3696 22.2146H31.9196C32.6388 20.9339 33.0329 19.4963 33.0675 18.0279L33.3407 17.9024ZM22.1915 7.12433C22.1939 6.73264 22.3087 6.34988 22.5223 6.02151C22.7358 5.69315 23.0391 5.43297 23.3962 5.27189C23.5483 5.47376 23.7327 5.64919 23.9419 5.79113C24.0409 5.85823 24.1581 5.89342 24.2777 5.89196C24.3973 5.8905 24.5136 5.85247 24.611 5.78298C24.7083 5.71348 24.7821 5.61586 24.8223 5.50321C24.8626 5.39057 24.8674 5.2683 24.8361 5.15285C25.2509 5.25831 25.6219 5.492 25.8961 5.82064C26.1703 6.14927 26.3338 6.55608 26.3632 6.98307C26.3927 7.41007 26.2866 7.83547 26.0601 8.19865C25.8337 8.56183 25.4983 8.84425 25.1019 9.00568C24.5822 8.9461 24.0583 8.93 23.5359 8.95753C23.4825 8.96037 23.4296 8.96593 23.3763 8.96964C23.0236 8.80687 22.7247 8.54671 22.5148 8.2198C22.3049 7.89289 22.1927 7.51283 22.1915 7.12433ZM23.5972 10.1279C24.969 10.0479 26.3378 10.3275 27.5683 10.939C28.7988 11.5504 29.8482 12.4726 30.6129 13.6143C30.4272 13.5823 30.2392 13.5664 30.0509 13.5667C28.8542 13.5667 28.2236 14.1429 27.7169 14.6065C27.2515 15.0319 26.9155 15.3389 26.1739 15.3389C25.4323 15.3389 25.0964 15.0315 24.6309 14.6065C24.1244 14.1432 23.494 13.5666 22.2969 13.5666C21.0999 13.5666 20.47 14.1428 19.963 14.6065C19.498 15.0318 19.1622 15.3389 18.4205 15.3389C17.6859 15.3389 17.3492 15.037 16.8907 14.6178C17.5029 13.3365 18.4486 12.2436 19.6286 11.4537C20.8086 10.6637 22.1794 10.2058 23.5972 10.1279Z" fill="#AE9273"/>
<path d="M18.2324 33.3816C16.3596 32.5854 14.7559 31.4089 13.595 29.9807C13.4963 29.8623 13.355 29.7876 13.2016 29.7728C13.0482 29.7579 12.8952 29.804 12.7756 29.9012C12.656 29.9984 12.5794 30.1387 12.5626 30.2919C12.5457 30.4451 12.5899 30.5987 12.6855 30.7196C13.9664 32.2961 15.7261 33.5896 17.7741 34.4598C17.8451 34.4912 17.9217 34.5081 17.9993 34.5096C18.0769 34.5111 18.1541 34.4972 18.2263 34.4687C18.2985 34.4401 18.3643 34.3975 18.4198 34.3433C18.4754 34.2891 18.5197 34.2244 18.55 34.1529C18.5804 34.0815 18.5963 34.0047 18.5967 33.9271C18.5971 33.8495 18.5822 33.7725 18.5526 33.7007C18.5231 33.6289 18.4795 33.5637 18.4246 33.5089C18.3696 33.4541 18.3043 33.4107 18.2324 33.3814V33.3816Z" fill="#AE9273"/>
</svg>
